<svg xmlns="http://www.w3.org/2000/svg" width="24" height="24" viewBox="0 0 24 24" fill="currentColor">
  <path d="M11.996 0A12 12 0 000 12c0 2.123.553 4.135 1.543 5.92L.03 24l6.23-1.6A11.96 11.96 0 0011.996 24C18.623 24 24 18.623 24 12S18.623 0 11.996 0zm6.19 17.202c-.276.78-1.59 1.488-2.203 1.543-.549.049-1.242.146-3.882-.931-3.187-1.298-5.228-4.577-5.385-4.789-.158-.211-1.286-1.714-1.286-3.265 0-1.55.803-2.316 1.085-2.61.283-.294.613-.368.817-.368.204 0 .408.003.585.01.196.01.458-.076.717.545.281.674.965 2.364 1.05 2.535.086.171.143.368.043.565-.1.196-.153.318-.306.495-.153.178-.323.385-.458.536-.148.163-.306.342-.132.643.173.298.773 1.276 1.657 2.066 1.142 1.02 2.106 1.336 2.413 1.483.307.147.487.123.67-.087.183-.21.787-.918.995-1.233.208-.316.416-.263.693-.159.278.104 1.761.83 2.063.98.303.151.505.227.579.352.074.125.074.723-.202 1.503z"/>
</svg>
